<svg id="visual" viewBox="0 0 900 600" width="900" height="600" xmlns="http://www.w3.org/2000/svg" xmlns:xlink="http://www.w3.org/1999/xlink" version="1.1"><g transform="translate(470.45200331585323 277.8582980324141)"><path d="M119 -161.9C152.9 -139.1 178.2 -102.6 194.5 -61.1C210.8 -19.7 218.1 26.8 212 76.1C205.9 125.4 186.4 177.6 148.9 206.4C111.3 235.2 55.6 240.6 7.5 230.2C-40.6 219.8 -81.1 193.6 -119.3 165.1C-157.5 136.5 -193.4 105.5 -220.6 62.1C-247.9 18.7 -266.6 -37 -246.8 -74.7C-226.9 -112.4 -168.6 -132 -121 -150.4C-73.5 -168.8 -36.7 -185.9 2.9 -189.9C42.5 -193.9 85 -184.7 119 -161.9" fill="#d80a5c"></path></g></svg>